<svg
   width="5.3118mm"
   height="5.3108149mm"
   style="scale: 0.8"
   viewBox="0 0 5.3118 5.3108149"
   version="1.1"
   xmlns="http://www.w3.org/2000/svg">
  <g transform="translate(-101.79748,-145.84372)">
    <path style="fill:#ffffff" d="m 102.48622,151.14211 c -0.30518,-0.0466 -0.55754,-0.26767 -0.65181,-0.57092 -0.0272,-0.0876 -0.0289,-0.1123 -0.0289,-0.42168 0,-0.35905 0.004,-0.38338 0.0825,-0.45434 0.13488,-0.12256 0.33678,-0.0863 0.42405,0.0761 0.0247,0.0459 0.0271,0.0727 0.0329,0.36062 0.009,0.46754 0.009,0.46716 0.47753,0.47654 0.33198,0.007 0.3501,0.01 0.42599,0.079 0.13617,0.12374 0.0994,0.34569 -0.0725,0.43738 -0.0476,0.0254 -0.55375,0.0381 -0.68973,0.0174 z m 1.4229,-0.007 c -0.24548,-0.0765 -0.24287,-0.43563 0.004,-0.50886 0.0898,-0.0267 0.99129,-0.0267 1.08114,0 0.24885,0.0739 0.24885,0.43535 0,0.50925 -0.0862,0.0256 -1.00258,0.0253 -1.08484,-3.9e-4 z m 1.85343,8e-4 c -0.2357,-0.0873 -0.25432,-0.3798 -0.0317,-0.49853 0.038,-0.0203 0.0821,-0.0239 0.35442,-0.0294 0.46752,-0.009 0.46714,-0.009 0.47658,-0.47749 0.006,-0.2869 0.008,-0.31377 0.0329,-0.35967 0.10858,-0.20209 0.37412,-0.19869 0.4834,0.006 0.0389,0.0728 0.0346,0.66403 -0.006,0.79375 -0.0821,0.26401 -0.27857,0.46229 -0.54159,0.5465 -0.11337,0.0363 -0.68319,0.0501 -0.76823,0.0186 z m -3.78963,-1.92427 c -0.0692,-0.0299 -0.13488,-0.10234 -0.15541,-0.17145 -0.0267,-0.0898 -0.0267,-0.99128 0,-1.08113 0.0739,-0.24886 0.43535,-0.24886 0.50925,0 0.0267,0.0899 0.0267,0.99129 0,1.08113 -0.0434,0.14601 -0.21745,0.23037 -0.35384,0.17145 z m 4.7625,0 c -0.0692,-0.0299 -0.13488,-0.10234 -0.15541,-0.17145 -0.0267,-0.0898 -0.0267,-0.99128 0,-1.08113 0.0318,-0.10696 0.14393,-0.19117 0.25463,-0.19117 0.1107,0 0.22286,0.0842 0.25462,0.19117 0.0267,0.0899 0.0267,0.99129 0,1.08113 -0.0434,0.14601 -0.21745,0.23037 -0.35384,0.17145 z m -4.74318,-1.84608 c -0.0945,-0.0349 -0.15598,-0.1018 -0.1819,-0.19796 -0.0261,-0.0968 -0.007,-0.64239 0.0254,-0.74537 0.084,-0.26286 0.28241,-0.4595 0.54645,-0.54159 0.13796,-0.0429 0.72137,-0.0445 0.79995,-0.002 0.20209,0.10877 0.19869,0.37417 -0.006,0.48345 -0.038,0.0203 -0.0821,0.0239 -0.35347,0.0294 -0.46852,0.009 -0.46815,0.009 -0.47753,0.47653 -0.006,0.28788 -0.008,0.31471 -0.0329,0.36063 -0.0646,0.12019 -0.20399,0.17998 -0.31981,0.13717 z m 4.7625,0 c -0.16593,-0.0613 -0.19279,-0.13239 -0.19288,-0.51039 -1.2e-4,-0.44236 -0.0128,-0.45475 -0.47549,-0.46394 -0.33426,-0.007 -0.3521,-0.01 -0.42806,-0.079 -0.13617,-0.12374 -0.0994,-0.34569 0.0725,-0.43738 0.0729,-0.0389 0.66403,-0.0346 0.79375,0.006 0.26687,0.083 0.46483,0.28093 0.54779,0.5478 0.0429,0.13796 0.0445,0.72137 0.002,0.79995 -0.0647,0.12022 -0.20404,0.17998 -0.31985,0.13717 z m -2.84562,-0.99295 c -0.24548,-0.0766 -0.24287,-0.43563 0.004,-0.50886 0.0898,-0.0267 0.99129,-0.0267 1.08114,0 0.24885,0.0739 0.24885,0.43535 0,0.50925 -0.0862,0.0256 -1.00258,0.0253 -1.08484,-3.9e-4 z" />
  </g>
</svg>
